# xmcd
#
# Track frame offsets:
#	150
#	5035
#	9855
#	12522
#	15112
#	20110
#	25092
#	27885
#	30652
#	33415
#	36170
#	41285
#	46397
#	49230
#	52082
#	57105
#	62087
#	64862
#	67597
#	72660
#	77657
#	80420
#	83170
#	88230
#	93150
#	95845
#	98517
#	103495
#	108415
#	111130
#	113815
#	118797
#	123775
#	126567
#	129315
#	134302
#	139292
#	142057
#	144785
#	149772
#	154762
#	157485
#	160197
#	165187
#	170185
#	172852
#	175520
#	180540
#	185505
#	188307
#	191050
#	193847
#	196585
#	201617
#	206605
#	209372
#	212127
#	217105
#	222110
#	224887
#
# Disc length: 3031 seconds
#
# Revision: 1
# Processed by: cddbd v1.5.1PL0 Copyright (c) Steve Scherf et al.
# Submitted via: audiograbber 1.82.00
#
DISCID=710bd53c
DTITLE=TM Century - MegaMusic - 509 - Country
DYEAR=1900
DGENRE=
TTITLE0=8806-Friday Nite Brawl - Full Mix
TTITLE1=8806-Friday Nite Brawl - Rhythm Mix
TTITLE2=8806-Friday Nite Brawl - Full Mix-Edit
TTITLE3=8806-Friday Nite Brawl - Rhythm Mix-Edit
TTITLE4=8807-Two Tone Truck - Full Mix
TTITLE5=8807-Two Tone Truck - Rhythm Mix
TTITLE6=8807-Two Tone Truck - Full Mix-Edit
TTITLE7=8807-Two Tone Truck - Rhythm Mix-Edit
TTITLE8=8807-Two Tone Truck - Alt Full Mix-Edit
TTITLE9=8807-Two Tone Truck - Alt Rhythm Mix-Edit
TTITLE10=8808-Bull Ride - Full Mix
TTITLE11=8808-Bull Ride - Rhythm Mix
TTITLE12=8808-Bull Ride - Full Mix-Edit
TTITLE13=8808-Bull Ride - Rhythm Mix-Edit
TTITLE14=8809-Harvest Time - Full Mix
TTITLE15=8809-Harvest Time - Rhythm Mix
TTITLE16=8809-Harvest Time - Full Mix-Edit
TTITLE17=8809-Harvest Time - Rhythm Mix-Edit
TTITLE18=8810-Car Stereo - Full Mix
TTITLE19=8810-Car Stereo - Rhythm Mix
TTITLE20=8810-Car Stereo - Full Mix-Edit
TTITLE21=8810-Car Stereo - Rhythm Mix-Edit
TTITLE22=8811-Trading Places - Full Mix
TTITLE23=8811-Trading Places - Rhythm Mix
TTITLE24=8811-Trading Places - Full Mix-Edit
TTITLE25=8811-Trading Places - Rhythm Mix-Edit
TTITLE26=8812-General Store - Full Mix
TTITLE27=8812-General Store - Rhythm Mix
TTITLE28=8812-General Store - Full Mix-Edit
TTITLE29=8812-General Store - Rhythm Mix-Edit
TTITLE30=8813-Beer Bubbles - Full Mix
TTITLE31=8813-Beer Bubbles - Rhythm Mix
TTITLE32=8813-Beer Bubbles - Full Mix-Edit
TTITLE33=8813-Beer Bubbles - Rhythm Mix-Edit
TTITLE34=8814-Trout Line - Full Mix
TTITLE35=8814-Trout Line - Rhythm Mix
TTITLE36=8814-Trout Line - Full Mix-Edit
TTITLE37=8814-Trout Line - Rhythm Mix-Edit
TTITLE38=8815-Papa's New Car - Full Mix
TTITLE39=8815-Papa's New Car - Rhythm Mix
TTITLE40=8815-Papa's New Car - Full Mix-Edit
TTITLE41=8815-Papa's New Car - Rhythm Mix-Edit
TTITLE42=8816-Boggy Creek - Full Mix
TTITLE43=8816-Boggy Creek - Rhythm Mix
TTITLE44=8816-Boggy Creek - Full Mix-Edit
TTITLE45=8816-Boggy Creek - Rhythm Mix-Edit
TTITLE46=8817-Environmentally Safe - Full Mix
TTITLE47=8817-Environmentally Safe - Rhythm Mix
TTITLE48=8817-Environmentally Safe - Full Mix-Edit
TTITLE49=8817-Environmentally Safe - Rhythm Mix-Edit
TTITLE50=8817-Environmentally Safe - Alt Full Mix-Edit
TTITLE51=8817-Environmentally Safe - Alt Rhythm Mix-Edit
TTITLE52=8818-Crying Guitar - Full Mix
TTITLE53=8818-Crying Guitar - Rhythm Mix
TTITLE54=8818-Crying Guitar - Full Mix-Edit
TTITLE55=8818-Crying Guitar - Rhythm Mix-Edit
TTITLE56=8819-Family Estate - Full Mix
TTITLE57=8819-Family Estate - Rhythm Mix
TTITLE58=8819-Family Estate - Full Mix-Edit
TTITLE59=8819-Family Estate - Rhythm Mix-Edit
EXTD=
EXTT0=
EXTT1=
EXTT2=
EXTT3=
EXTT4=
EXTT5=
EXTT6=
EXTT7=
EXTT8=
EXTT9=
EXTT10=
EXTT11=
EXTT12=
EXTT13=
EXTT14=
EXTT15=
EXTT16=
EXTT17=
EXTT18=
EXTT19=
EXTT20=
EXTT21=
EXTT22=
EXTT23=
EXTT24=
EXTT25=
EXTT26=
EXTT27=
EXTT28=
EXTT29=
EXTT30=
EXTT31=
EXTT32=
EXTT33=
EXTT34=
EXTT35=
EXTT36=
EXTT37=
EXTT38=
EXTT39=
EXTT40=
EXTT41=
EXTT42=
EXTT43=
EXTT44=
EXTT45=
EXTT46=
EXTT47=
EXTT48=
EXTT49=
EXTT50=
EXTT51=
EXTT52=
EXTT53=
EXTT54=
EXTT55=
EXTT56=
EXTT57=
EXTT58=
EXTT59=
PLAYORDER=
